# xmcd CD database file
#
# Track frame offsets:
#	150
#	24439
#	41427
#	57367
#	79645
#	90796
#	101133
#	115360
#	137804
#	152811
#	180212
#	200631
#	213482
#
# Disc length: 3310 seconds
#
# Revision: 0
# Processed by: cddbd v1.5.2PL0 Copyright (c) Steve Scherf et al.
# Submitted via: CDex 1.51
#
DISCID=a50cec0d
DTITLE=Various Artist - Blue Note Christmas - Yule Struttin'
DYEAR=1990
DGENRE=Jazz
TTITLE0=Vauncing Chimes - Bobby Watson and Horizon
TTITLE1=Silent Night - Stanley Jordan
TTITLE2=The Christmas Song (Merry Christmas To You) - Lou Rawls
TTITLE3=I'll Be Home For Christmas - Sleigh Ride - Ellane Elias
TTITLE4=Winter Wonderland - Chet Baker
TTITLE5=A Merrier Christmas - Benny Green
TTITLE6=A Merrier Christmas - Dianne Reeves
TTITLE7=O Tannenbaum - John Hart
TTITLE8=Jingle Bells - Count Basie
TTITLE9=Chipmunk Christmas - John Scofield
TTITLE10=God Rest Ye Merry Gentlemen - Joey Calderazzo
TTITLE11=Silent Night - Benny Green
TTITLE12=The Little Drummer Boy - Rick Margitza
EXTD=YEAR: 1990
EXTT0=
EXTT1=
EXTT2=
EXTT3=
EXTT4=
EXTT5=
EXTT6=
EXTT7=
EXTT8=
EXTT9=
EXTT10=
EXTT11=
EXTT12=
PLAYORDER=
